<mxfile host="app.diagrams.net" modified="2023-04-12T12:40:38.723Z" agent="Mozilla/5.0 (X11; Linux x86_64; rv:109.0) Gecko/20100101 Firefox/111.0" etag="Av8EgNEr-WP31g7Up_KH" version="21.1.5" type="device">
  <diagram name="Page-1" id="-LS3lSdazOeHsXu57dui">
    <mxGraphModel dx="2012" dy="658" grid="1" gridSize="10" guides="1" tooltips="1" connect="1" arrows="1" fold="1" page="1" pageScale="1" pageWidth="827" pageHeight="1169" math="0" shadow="0">
      <root>
        <mxCell id="0" />
        <mxCell id="1" parent="0" />
        <mxCell id="ikPF2jFiIXhJxYarMHXp-59" value="Car" style="whiteSpace=wrap;html=1;align=center;" vertex="1" parent="1">
          <mxGeometry x="10" y="300" width="100" height="40" as="geometry" />
        </mxCell>
        <mxCell id="ikPF2jFiIXhJxYarMHXp-60" value="car_id" style="ellipse;whiteSpace=wrap;html=1;align=center;fontStyle=4;" vertex="1" parent="1">
          <mxGeometry x="-110" y="220" width="100" height="40" as="geometry" />
        </mxCell>
        <mxCell id="ikPF2jFiIXhJxYarMHXp-61" value="model" style="ellipse;whiteSpace=wrap;html=1;align=center;" vertex="1" parent="1">
          <mxGeometry x="-110" y="300" width="100" height="40" as="geometry" />
        </mxCell>
        <mxCell id="ikPF2jFiIXhJxYarMHXp-62" value="manufacturer" style="ellipse;whiteSpace=wrap;html=1;align=center;" vertex="1" parent="1">
          <mxGeometry x="-110" y="260" width="100" height="40" as="geometry" />
        </mxCell>
        <mxCell id="ikPF2jFiIXhJxYarMHXp-63" value="&lt;div&gt;year&lt;/div&gt;" style="ellipse;whiteSpace=wrap;html=1;align=center;" vertex="1" parent="1">
          <mxGeometry x="-110" y="340" width="100" height="40" as="geometry" />
        </mxCell>
        <mxCell id="ikPF2jFiIXhJxYarMHXp-64" value="daily_rate" style="ellipse;whiteSpace=wrap;html=1;align=center;" vertex="1" parent="1">
          <mxGeometry x="-110" y="380" width="100" height="40" as="geometry" />
        </mxCell>
        <mxCell id="ikPF2jFiIXhJxYarMHXp-65" value="Customer" style="whiteSpace=wrap;html=1;align=center;" vertex="1" parent="1">
          <mxGeometry x="10" y="550" width="100" height="40" as="geometry" />
        </mxCell>
        <mxCell id="ikPF2jFiIXhJxYarMHXp-66" value="customer_id" style="ellipse;whiteSpace=wrap;html=1;align=center;fontStyle=4;" vertex="1" parent="1">
          <mxGeometry x="-110" y="490" width="100" height="40" as="geometry" />
        </mxCell>
        <mxCell id="ikPF2jFiIXhJxYarMHXp-67" value="email" style="ellipse;whiteSpace=wrap;html=1;align=center;" vertex="1" parent="1">
          <mxGeometry x="-110" y="570" width="100" height="40" as="geometry" />
        </mxCell>
        <mxCell id="ikPF2jFiIXhJxYarMHXp-68" value="name" style="ellipse;whiteSpace=wrap;html=1;align=center;" vertex="1" parent="1">
          <mxGeometry x="-110" y="530" width="100" height="40" as="geometry" />
        </mxCell>
        <mxCell id="ikPF2jFiIXhJxYarMHXp-69" value="phone" style="ellipse;whiteSpace=wrap;html=1;align=center;" vertex="1" parent="1">
          <mxGeometry x="-110" y="610" width="100" height="40" as="geometry" />
        </mxCell>
        <mxCell id="ikPF2jFiIXhJxYarMHXp-70" value="Rent" style="whiteSpace=wrap;html=1;align=center;" vertex="1" parent="1">
          <mxGeometry x="220" y="430" width="100" height="40" as="geometry" />
        </mxCell>
        <mxCell id="ikPF2jFiIXhJxYarMHXp-71" value="rent_id" style="ellipse;whiteSpace=wrap;html=1;align=center;fontStyle=4;" vertex="1" parent="1">
          <mxGeometry x="366" y="370" width="100" height="40" as="geometry" />
        </mxCell>
        <mxCell id="ikPF2jFiIXhJxYarMHXp-72" value="rent_date" style="ellipse;whiteSpace=wrap;html=1;align=center;" vertex="1" parent="1">
          <mxGeometry x="366" y="410" width="100" height="40" as="geometry" />
        </mxCell>
        <mxCell id="ikPF2jFiIXhJxYarMHXp-73" value="return_date" style="ellipse;whiteSpace=wrap;html=1;align=center;" vertex="1" parent="1">
          <mxGeometry x="366" y="450" width="100" height="40" as="geometry" />
        </mxCell>
        <mxCell id="ikPF2jFiIXhJxYarMHXp-74" value="amount_paid" style="ellipse;whiteSpace=wrap;html=1;align=center;" vertex="1" parent="1">
          <mxGeometry x="366" y="490" width="100" height="40" as="geometry" />
        </mxCell>
        <mxCell id="ikPF2jFiIXhJxYarMHXp-75" value="" style="endArrow=none;html=1;rounded=0;exitX=1;exitY=0.5;exitDx=0;exitDy=0;entryX=0;entryY=1;entryDx=0;entryDy=0;" edge="1" parent="1" source="ikPF2jFiIXhJxYarMHXp-64" target="ikPF2jFiIXhJxYarMHXp-59">
          <mxGeometry relative="1" as="geometry">
            <mxPoint x="10" y="450" as="sourcePoint" />
            <mxPoint x="170" y="450" as="targetPoint" />
          </mxGeometry>
        </mxCell>
        <mxCell id="ikPF2jFiIXhJxYarMHXp-76" value="" style="endArrow=none;html=1;rounded=0;exitX=1;exitY=0.5;exitDx=0;exitDy=0;entryX=0;entryY=0.75;entryDx=0;entryDy=0;" edge="1" parent="1" source="ikPF2jFiIXhJxYarMHXp-63" target="ikPF2jFiIXhJxYarMHXp-59">
          <mxGeometry relative="1" as="geometry">
            <mxPoint y="410" as="sourcePoint" />
            <mxPoint x="55" y="350" as="targetPoint" />
          </mxGeometry>
        </mxCell>
        <mxCell id="ikPF2jFiIXhJxYarMHXp-77" value="" style="endArrow=none;html=1;rounded=0;exitX=1;exitY=0.5;exitDx=0;exitDy=0;entryX=0;entryY=0.5;entryDx=0;entryDy=0;" edge="1" parent="1" source="ikPF2jFiIXhJxYarMHXp-61" target="ikPF2jFiIXhJxYarMHXp-59">
          <mxGeometry relative="1" as="geometry">
            <mxPoint x="10" y="420" as="sourcePoint" />
            <mxPoint x="65" y="360" as="targetPoint" />
          </mxGeometry>
        </mxCell>
        <mxCell id="ikPF2jFiIXhJxYarMHXp-78" value="" style="endArrow=none;html=1;rounded=0;exitX=1;exitY=0.5;exitDx=0;exitDy=0;entryX=0;entryY=0.25;entryDx=0;entryDy=0;" edge="1" parent="1" source="ikPF2jFiIXhJxYarMHXp-62" target="ikPF2jFiIXhJxYarMHXp-59">
          <mxGeometry relative="1" as="geometry">
            <mxPoint x="20" y="430" as="sourcePoint" />
            <mxPoint x="75" y="370" as="targetPoint" />
          </mxGeometry>
        </mxCell>
        <mxCell id="ikPF2jFiIXhJxYarMHXp-79" value="" style="endArrow=none;html=1;rounded=0;exitX=1;exitY=0.5;exitDx=0;exitDy=0;entryX=0;entryY=0;entryDx=0;entryDy=0;" edge="1" parent="1" source="ikPF2jFiIXhJxYarMHXp-60" target="ikPF2jFiIXhJxYarMHXp-59">
          <mxGeometry relative="1" as="geometry">
            <mxPoint x="30" y="440" as="sourcePoint" />
            <mxPoint x="85" y="380" as="targetPoint" />
          </mxGeometry>
        </mxCell>
        <mxCell id="ikPF2jFiIXhJxYarMHXp-80" value="" style="endArrow=none;html=1;rounded=0;exitX=1;exitY=0.5;exitDx=0;exitDy=0;entryX=0;entryY=0;entryDx=0;entryDy=0;" edge="1" parent="1" source="ikPF2jFiIXhJxYarMHXp-66" target="ikPF2jFiIXhJxYarMHXp-65">
          <mxGeometry relative="1" as="geometry">
            <mxPoint x="40" y="450" as="sourcePoint" />
            <mxPoint x="95" y="390" as="targetPoint" />
          </mxGeometry>
        </mxCell>
        <mxCell id="ikPF2jFiIXhJxYarMHXp-81" value="" style="endArrow=none;html=1;rounded=0;exitX=1;exitY=0.5;exitDx=0;exitDy=0;entryX=0;entryY=0.5;entryDx=0;entryDy=0;" edge="1" parent="1" source="ikPF2jFiIXhJxYarMHXp-68" target="ikPF2jFiIXhJxYarMHXp-65">
          <mxGeometry relative="1" as="geometry">
            <mxPoint x="50" y="460" as="sourcePoint" />
            <mxPoint x="105" y="400" as="targetPoint" />
          </mxGeometry>
        </mxCell>
        <mxCell id="ikPF2jFiIXhJxYarMHXp-82" value="" style="endArrow=none;html=1;rounded=0;exitX=1;exitY=0.5;exitDx=0;exitDy=0;entryX=0;entryY=0.75;entryDx=0;entryDy=0;" edge="1" parent="1" source="ikPF2jFiIXhJxYarMHXp-67" target="ikPF2jFiIXhJxYarMHXp-65">
          <mxGeometry relative="1" as="geometry">
            <mxPoint x="60" y="470" as="sourcePoint" />
            <mxPoint x="115" y="410" as="targetPoint" />
          </mxGeometry>
        </mxCell>
        <mxCell id="ikPF2jFiIXhJxYarMHXp-83" value="" style="endArrow=none;html=1;rounded=0;exitX=1;exitY=0.5;exitDx=0;exitDy=0;entryX=0;entryY=1;entryDx=0;entryDy=0;" edge="1" parent="1" source="ikPF2jFiIXhJxYarMHXp-69" target="ikPF2jFiIXhJxYarMHXp-65">
          <mxGeometry relative="1" as="geometry">
            <mxPoint x="70" y="480" as="sourcePoint" />
            <mxPoint x="40" y="590" as="targetPoint" />
          </mxGeometry>
        </mxCell>
        <mxCell id="ikPF2jFiIXhJxYarMHXp-84" value="" style="endArrow=none;html=1;rounded=0;exitX=0;exitY=0.5;exitDx=0;exitDy=0;entryX=1;entryY=1;entryDx=0;entryDy=0;" edge="1" parent="1" source="ikPF2jFiIXhJxYarMHXp-74" target="ikPF2jFiIXhJxYarMHXp-70">
          <mxGeometry relative="1" as="geometry">
            <mxPoint x="30" y="650" as="sourcePoint" />
            <mxPoint x="310" y="480" as="targetPoint" />
          </mxGeometry>
        </mxCell>
        <mxCell id="ikPF2jFiIXhJxYarMHXp-85" value="" style="endArrow=none;html=1;rounded=0;exitX=0;exitY=0.5;exitDx=0;exitDy=0;entryX=1;entryY=0.75;entryDx=0;entryDy=0;" edge="1" parent="1" source="ikPF2jFiIXhJxYarMHXp-73" target="ikPF2jFiIXhJxYarMHXp-70">
          <mxGeometry relative="1" as="geometry">
            <mxPoint x="376" y="520" as="sourcePoint" />
            <mxPoint x="310" y="460" as="targetPoint" />
          </mxGeometry>
        </mxCell>
        <mxCell id="ikPF2jFiIXhJxYarMHXp-86" value="" style="endArrow=none;html=1;rounded=0;exitX=0;exitY=0.5;exitDx=0;exitDy=0;entryX=1;entryY=0.25;entryDx=0;entryDy=0;" edge="1" parent="1" source="ikPF2jFiIXhJxYarMHXp-72" target="ikPF2jFiIXhJxYarMHXp-70">
          <mxGeometry relative="1" as="geometry">
            <mxPoint x="386" y="530" as="sourcePoint" />
            <mxPoint x="310" y="440" as="targetPoint" />
          </mxGeometry>
        </mxCell>
        <mxCell id="ikPF2jFiIXhJxYarMHXp-87" value="" style="endArrow=none;html=1;rounded=0;exitX=0;exitY=0.5;exitDx=0;exitDy=0;entryX=1;entryY=0;entryDx=0;entryDy=0;" edge="1" parent="1" source="ikPF2jFiIXhJxYarMHXp-71" target="ikPF2jFiIXhJxYarMHXp-70">
          <mxGeometry relative="1" as="geometry">
            <mxPoint x="396" y="540" as="sourcePoint" />
            <mxPoint x="320" y="420" as="targetPoint" />
          </mxGeometry>
        </mxCell>
        <mxCell id="ikPF2jFiIXhJxYarMHXp-88" value="Reservation" style="whiteSpace=wrap;html=1;align=center;" vertex="1" parent="1">
          <mxGeometry x="220" y="660" width="100" height="40" as="geometry" />
        </mxCell>
        <mxCell id="ikPF2jFiIXhJxYarMHXp-89" value="reservation_id" style="ellipse;whiteSpace=wrap;html=1;align=center;fontStyle=4;" vertex="1" parent="1">
          <mxGeometry x="366" y="600" width="100" height="40" as="geometry" />
        </mxCell>
        <mxCell id="ikPF2jFiIXhJxYarMHXp-90" value="car_id" style="ellipse;whiteSpace=wrap;html=1;align=center;" vertex="1" parent="1">
          <mxGeometry x="366" y="640" width="100" height="40" as="geometry" />
        </mxCell>
        <mxCell id="ikPF2jFiIXhJxYarMHXp-91" value="customer_id" style="ellipse;whiteSpace=wrap;html=1;align=center;" vertex="1" parent="1">
          <mxGeometry x="366" y="680" width="100" height="40" as="geometry" />
        </mxCell>
        <mxCell id="ikPF2jFiIXhJxYarMHXp-92" value="reservation_date" style="ellipse;whiteSpace=wrap;html=1;align=center;" vertex="1" parent="1">
          <mxGeometry x="366" y="720" width="100" height="40" as="geometry" />
        </mxCell>
        <mxCell id="ikPF2jFiIXhJxYarMHXp-93" value="" style="endArrow=none;html=1;rounded=0;exitX=0;exitY=0.5;exitDx=0;exitDy=0;entryX=1;entryY=0.75;entryDx=0;entryDy=0;" edge="1" parent="1" source="ikPF2jFiIXhJxYarMHXp-92" target="ikPF2jFiIXhJxYarMHXp-88">
          <mxGeometry relative="1" as="geometry">
            <mxPoint x="30" y="880" as="sourcePoint" />
            <mxPoint x="310" y="710" as="targetPoint" />
          </mxGeometry>
        </mxCell>
        <mxCell id="ikPF2jFiIXhJxYarMHXp-94" value="" style="endArrow=none;html=1;rounded=0;exitX=0;exitY=0.5;exitDx=0;exitDy=0;entryX=1;entryY=0.5;entryDx=0;entryDy=0;" edge="1" parent="1" source="ikPF2jFiIXhJxYarMHXp-91" target="ikPF2jFiIXhJxYarMHXp-88">
          <mxGeometry relative="1" as="geometry">
            <mxPoint x="376" y="750" as="sourcePoint" />
            <mxPoint x="310" y="690" as="targetPoint" />
          </mxGeometry>
        </mxCell>
        <mxCell id="ikPF2jFiIXhJxYarMHXp-95" value="" style="endArrow=none;html=1;rounded=0;exitX=0;exitY=0.5;exitDx=0;exitDy=0;entryX=1;entryY=0.25;entryDx=0;entryDy=0;" edge="1" parent="1" source="ikPF2jFiIXhJxYarMHXp-90" target="ikPF2jFiIXhJxYarMHXp-88">
          <mxGeometry relative="1" as="geometry">
            <mxPoint x="386" y="760" as="sourcePoint" />
            <mxPoint x="310" y="670" as="targetPoint" />
          </mxGeometry>
        </mxCell>
        <mxCell id="ikPF2jFiIXhJxYarMHXp-96" value="" style="endArrow=none;html=1;rounded=0;exitX=0;exitY=0.5;exitDx=0;exitDy=0;entryX=1;entryY=0;entryDx=0;entryDy=0;" edge="1" parent="1" source="ikPF2jFiIXhJxYarMHXp-89" target="ikPF2jFiIXhJxYarMHXp-88">
          <mxGeometry relative="1" as="geometry">
            <mxPoint x="396" y="770" as="sourcePoint" />
            <mxPoint x="320" y="650" as="targetPoint" />
          </mxGeometry>
        </mxCell>
        <mxCell id="ikPF2jFiIXhJxYarMHXp-97" value="expiration_date" style="ellipse;whiteSpace=wrap;html=1;align=center;" vertex="1" parent="1">
          <mxGeometry x="364" y="760" width="100" height="40" as="geometry" />
        </mxCell>
        <mxCell id="ikPF2jFiIXhJxYarMHXp-98" value="" style="endArrow=none;html=1;rounded=0;exitX=0;exitY=0.5;exitDx=0;exitDy=0;" edge="1" parent="1" source="ikPF2jFiIXhJxYarMHXp-97">
          <mxGeometry relative="1" as="geometry">
            <mxPoint x="356" y="760" as="sourcePoint" />
            <mxPoint x="320" y="700" as="targetPoint" />
          </mxGeometry>
        </mxCell>
      </root>
    </mxGraphModel>
  </diagram>
</mxfile>
